<?xml version="1.0" encoding="UTF-8"?>
<svg width="19px" height="19px" viewBox="0 0 19 19" version="1.1" xmlns="http://www.w3.org/2000/svg" xmlns:xlink="http://www.w3.org/1999/xlink">
    <!-- Generator: Sketch 63.1 (92452) - https://sketch.com -->
    <title>美颜</title>
    <desc>Created with Sketch.</desc>
    <defs>
        <polygon id="path-1" points="0 0.293124938 18.707 0.293124938 18.707 19 0 19"></polygon>
    </defs>
    <g id="卖播小程序" stroke="none" stroke-width="1" fill="none" fill-rule="evenodd">
        <g id="开播页面" transform="translate(-86.000000, -41.000000)">
            <g id="编组-5" transform="translate(83.000000, 38.000000)">
                <g id="美颜">
                    <g id="编组" transform="translate(3.000000, 2.500000)">
                        <polygon id="Fill-1" fill="#FFFFFF" opacity="0.670247396" points="4.32665 6.28905 3.66315 5.30755 5.44065 3.52905 6.10365 4.51105"></polygon>
                        <g transform="translate(0.000000, 0.206950)">
                            <g>
                                <mask id="mask-2" fill="white">
                                    <use xlink:href="#path-1"></use>
                                </mask>
                                <g id="Clip-3"></g>
                                <path d="M1.9375,1.64875 C1.788,1.64875 1.639,1.70525 1.5255,1.81875 C1.4165,1.92825 1.356,2.07425 1.356,2.23075 C1.356,2.38775 1.4165,2.53375 1.5255,2.64225 L16.3575,17.47425 C16.5755,17.69225 16.9625,17.69225 17.181,17.47425 C17.408,17.24725 17.408,16.87775 17.181,16.65075 L2.3495,1.81875 C2.236,1.70525 2.0865,1.64875 1.9375,1.64875 M16.7695,19.00025 C16.25,19.00025 15.763,18.79875 15.3985,18.43325 L15.398,18.43325 L0.5665,3.60175 C0.2015,3.23675 0,2.75025 0,2.23075 C0,1.71175 0.2015,1.22525 0.5665,0.85975 C1.3225,0.10475 2.552,0.10375 3.3085,0.85975 L18.14,15.69175 C18.896,16.44825 18.896,17.67775 18.14,18.43325 C17.775,18.79875 17.288,19.00025 16.7695,19.00025" id="Fill-2" fill="#FFFFFF" mask="url(#mask-2)"></path>
                            </g>
                            <path d="M13.1783,5.5263 C13.0048,5.5263 12.8313,5.4603 12.6988,5.3278 C12.4338,5.0628 12.4338,4.6333 12.6988,4.3688 L15.5758,1.4918 C15.8408,1.2268 16.2698,1.2268 16.5343,1.4918 C16.7993,1.7568 16.7993,2.1858 16.5343,2.4508 L13.6578,5.3278 C13.5253,5.4603 13.3518,5.5263 13.1783,5.5263" id="Fill-4" fill="#FFFFFF"></path>
                            <path d="M16.05525,5.5263 C15.88175,5.5263 15.70825,5.4603 15.57575,5.3278 L12.69875,2.4508 C12.43375,2.1858 12.43375,1.7568 12.69875,1.4918 C12.96375,1.2268 13.39275,1.2268 13.65775,1.4918 L16.53425,4.3688 C16.79925,4.6333 16.79925,5.0628 16.53425,5.3278 C16.40225,5.4603 16.22875,5.5263 16.05525,5.5263" id="Fill-6" fill="#FFFFFF" opacity="0.650320871"></path>
                            <path d="M3.02975,15.005425 C2.89425,15.005425 2.75875,14.953425 2.65525,14.850425 C2.44825,14.643425 2.44825,14.307925 2.65525,14.101425 L4.30825,12.447925 C4.51525,12.241425 4.85075,12.241425 5.05725,12.447925 C5.26425,12.654925 5.26425,12.990425 5.05725,13.196925 L3.40425,14.850425 C3.30075,14.953425 3.16525,15.005425 3.02975,15.005425" id="Fill-8" fill="#FFFFFF"></path>
                            <path d="M4.30835,14.850425 L2.65535,13.196925 C2.44835,12.990425 2.44835,12.654925 2.65535,12.447925 C2.86185,12.241425 3.19735,12.241425 3.40435,12.447925 L5.05735,14.101425 C5.26435,14.307925 5.26435,14.643425 5.05735,14.850425 C4.95385,14.953425 4.81835,15.005425 4.68285,15.005425 C4.54735,15.005425 4.41185,14.953425 4.30835,14.850425 Z" id="Fill-10" fill="#FFFFFF" opacity="0.515276228"></path>
                        </g>
                    </g>
                </g>
            </g>
        </g>
    </g>
</svg>