<?xml version="1.0" encoding="UTF-8"?>
<svg width="32px" height="32px" viewBox="0 0 32 32" version="1.1" xmlns="http://www.w3.org/2000/svg" xmlns:xlink="http://www.w3.org/1999/xlink">
    <!-- Generator: Sketch 63.1 (92452) - https://sketch.com -->
    <title>美颜</title>
    <desc>Created with Sketch.</desc>
    <defs>
        <polygon id="path-1" points="0 0.263812444 16.7378421 0.263812444 16.7378421 17.1 0 17.1"></polygon>
    </defs>
    <g id="卖播小程序" stroke="none" stroke-width="1" fill="none" fill-rule="evenodd">
        <g id="直播中备份-3" transform="translate(-328.000000, -102.000000)">
            <g id="美颜" transform="translate(328.000000, 102.000000)">
                <g id="编组-5备份" fill="#000000" opacity="0.501660156">
                    <circle id="椭圆形" cx="16" cy="16" r="16"></circle>
                </g>
                <g transform="translate(6.000000, 6.000000)" id="编组">
                    <g transform="translate(2.000000, 2.000000)">
                        <polygon id="Fill-1" fill="#FFFFFF" points="3.87121316 5.660145 3.27755526 4.776795 4.86795 3.176145 5.46116053 4.059945"></polygon>
                        <g transform="translate(0.000000, 0.186255)">
                            <g>
                                <mask id="mask-2" fill="white">
                                    <use xlink:href="#path-1"></use>
                                </mask>
                                <g id="Clip-3"></g>
                                <path d="M1.73355263,1.483875 C1.59978947,1.483875 1.46647368,1.534725 1.36492105,1.636875 C1.26739474,1.735425 1.21326316,1.866825 1.21326316,2.007675 C1.21326316,2.148975 1.26739474,2.280375 1.36492105,2.378025 L14.6356579,15.726825 C14.8307105,15.923025 15.1769737,15.923025 15.3724737,15.726825 C15.5755789,15.522525 15.5755789,15.189975 15.3724737,14.985675 L2.10218421,1.636875 C2.00063158,1.534725 1.86686842,1.483875 1.73355263,1.483875 M13.7776053,16.589925 L0.506868421,3.241575 C0.180289474,2.913075 0,2.475225 0,2.007675 C0,1.540575 0.180289474,1.102725 0.506868421,0.773775 C1.18328947,0.094275 2.28336842,0.093375 2.96023684,0.773775 L16.2305263,14.122575 C16.9069474,14.803425 16.9069474,15.909975 16.2305263,16.589925 C15.9039474,16.918875 15.4682105,17.100225 15.0042895,17.100225 C14.5394737,17.100225 14.1037368,16.918875 13.7776053,16.589925 Z" id="Fill-2" fill="#FFFFFF" mask="url(#mask-2)"></path>
                            </g>
                            <path d="M11.7911105,4.97367 C11.6358737,4.97367 11.4806368,4.91427 11.3620842,4.79502 C11.1249789,4.55652 11.1249789,4.16997 11.3620842,3.93192 L13.9362421,1.34262 C14.1733474,1.10412 14.5571895,1.10412 14.7938474,1.34262 C15.0309526,1.58112 15.0309526,1.96722 14.7938474,2.20572 L12.2201368,4.79502 C12.1015842,4.91427 11.9463474,4.97367 11.7911105,4.97367" id="Fill-4" fill="#FFFFFF"></path>
                            <path d="M14.3652237,4.97367 C14.2099868,4.97367 14.05475,4.91427 13.9361974,4.79502 L11.3620395,2.20572 C11.1249342,1.96722 11.1249342,1.58112 11.3620395,1.34262 C11.5991447,1.10412 11.9829868,1.10412 12.2200921,1.34262 L14.7938026,3.93192 C15.0309079,4.16997 15.0309079,4.55652 14.7938026,4.79502 C14.6756974,4.91427 14.5204605,4.97367 14.3652237,4.97367" id="Fill-6" fill="#FFFFFF"></path>
                            <path d="M2.71082895,13.5048825 C2.58959211,13.5048825 2.46835526,13.4580825 2.37575,13.3653825 C2.19053947,13.1790825 2.19053947,12.8771325 2.37575,12.6912825 L3.85475,11.2031325 C4.03996053,11.0172825 4.34014474,11.0172825 4.52490789,11.2031325 C4.71011842,11.3894325 4.71011842,11.6913825 4.52490789,11.8772325 L3.04590789,13.3653825 C2.95330263,13.4580825 2.83206579,13.5048825 2.71082895,13.5048825" id="Fill-8" fill="#FFFFFF"></path>
                            <path d="M3.85483947,13.3653825 L2.37583947,11.8772325 C2.19062895,11.6913825 2.19062895,11.3894325 2.37583947,11.2031325 C2.56060263,11.0172825 2.86078684,11.0172825 3.04599737,11.2031325 L4.52499737,12.6912825 C4.71020789,12.8771325 4.71020789,13.1790825 4.52499737,13.3653825 C4.43239211,13.4580825 4.31115526,13.5048825 4.18991842,13.5048825 C4.06868158,13.5048825 3.94744474,13.4580825 3.85483947,13.3653825 Z" id="Fill-10" fill="#FFFFFF"></path>
                        </g>
                    </g>
                </g>
            </g>
        </g>
    </g>
</svg>