<?xml version="1.0" encoding="UTF-8"?>
<svg width="17px" height="17px" viewBox="0 0 17 17" version="1.1" xmlns="http://www.w3.org/2000/svg" xmlns:xlink="http://www.w3.org/1999/xlink">
    <!-- Generator: Sketch 63.1 (92452) - https://sketch.com -->
    <title>叉</title>
    <desc>Created with Sketch.</desc>
    <defs>
        <polygon id="path-1" points="0.000133064516 0.323080645 16.1771855 0.323080645 16.1771855 16.5 0.000133064516 16.5"></polygon>
        <polygon id="path-3" points="5.32258065e-05 0.323080645 16.1771056 0.323080645 16.1771056 16.5 5.32258065e-05 16.5"></polygon>
    </defs>
    <g id="卖播小程序" stroke="none" stroke-width="1" fill="none" fill-rule="evenodd">
        <g id="开播页面" transform="translate(-24.000000, -42.000000)">
            <g id="叉" transform="translate(20.000000, 38.000000)">
                <g id="编组" transform="translate(4.000000, 4.000000)">
                    <g>
                        <mask id="mask-2" fill="white">
                            <use xlink:href="#path-1"></use>
                        </mask>
                        <g id="Clip-2"></g>
                        <path d="M0.798387097,16.5 C0.594,16.5 0.389612903,16.4222903 0.23366129,16.2663387 C-0.0777096774,15.9544355 -0.0777096774,15.4487903 0.23366129,15.1368871 L14.8143387,0.556741935 C15.1262419,0.24483871 15.6313548,0.24483871 15.9432581,0.556741935 C16.2551613,0.868645161 16.2551613,1.37429032 15.9432581,1.68566129 L1.3631129,16.2663387 C1.20716129,16.4222903 1.00277419,16.5 0.798387097,16.5" id="Fill-1" fill="#FFFFFF" mask="url(#mask-2)"></path>
                    </g>
                    <g>
                        <mask id="mask-4" fill="white">
                            <use xlink:href="#path-3"></use>
                        </mask>
                        <g id="Clip-4"></g>
                        <path d="M15.3788516,16.5 C15.1744645,16.5 14.9700774,16.4222903 14.8141258,16.2663387 L0.233980645,1.68566129 C-0.0779225806,1.37429032 -0.0779225806,0.868645161 0.233980645,0.556741935 C0.545883871,0.24483871 1.05099677,0.24483871 1.3629,0.556741935 L15.9435774,15.1368871 C16.2549484,15.4487903 16.2549484,15.9544355 15.9435774,16.2663387 C15.7876258,16.4222903 15.5832387,16.5 15.3788516,16.5" id="Fill-3" fill="#FFFFFF" mask="url(#mask-4)"></path>
                    </g>
                </g>
            </g>
        </g>
    </g>
</svg>