<?xml version="1.0" encoding="UTF-8"?>
<svg width="32px" height="32px" viewBox="0 0 32 32" version="1.1" xmlns="http://www.w3.org/2000/svg" xmlns:xlink="http://www.w3.org/1999/xlink">
    <!-- Generator: Sketch 63.1 (92452) - https://sketch.com -->
    <title>编组 5</title>
    <desc>Created with Sketch.</desc>
    <g id="卖播小程序" stroke="none" stroke-width="1" fill="none" fill-rule="evenodd">
        <g id="直播中备份-3" transform="translate(-328.000000, -606.000000)">
            <g id="编组-5" transform="translate(328.000000, 606.000000)">
                <circle id="椭圆形" fill="#000000" opacity="0.602176339" cx="16" cy="16" r="16"></circle>
                <path d="M16,8.3137085 C16.5522847,8.3137085 17,8.76142375 17,9.3137085 L17,15.3137085 L23,15.3137085 C23.5522847,15.3137085 24,15.7614237 24,16.3137085 C24,16.8659932 23.5522847,17.3137085 23,17.3137085 L16.999,17.3137085 L17,23.3137085 C17,23.8659932 16.5522847,24.3137085 16,24.3137085 C15.4477153,24.3137085 15,23.8659932 15,23.3137085 L14.999,17.3137085 L9,17.3137085 C8.44771525,17.3137085 8,16.8659932 8,16.3137085 C8,15.7614237 8.44771525,15.3137085 9,15.3137085 L15,15.3137085 L15,9.3137085 C15,8.76142375 15.4477153,8.3137085 16,8.3137085 Z" id="合并形状" fill="#FFFFFF" transform="translate(16.000000, 16.313708) rotate(-45.000000) translate(-16.000000, -16.313708) "></path>
            </g>
        </g>
    </g>
</svg>