<?xml version="1.0" encoding="UTF-8"?>
<svg width="32px" height="32px" viewBox="0 0 32 32" version="1.1" xmlns="http://www.w3.org/2000/svg" xmlns:xlink="http://www.w3.org/1999/xlink">
    <!-- Generator: Sketch 63.1 (92452) - https://sketch.com -->
    <title>编组 9</title>
    <desc>Created with Sketch.</desc>
    <defs>
        <polygon id="path-1" points="1 0.5 1.5 0.5 1.5 1 1 1"></polygon>
        <polygon id="path-3" points="0.0002 0.9428 18.358 0.9428 18.358 16.9998 0.0002 16.9998"></polygon>
        <polygon id="path-5" points="1 0.5 1.5 0.5 1.5 1 1 1"></polygon>
    </defs>
    <g id="卖播小程序" stroke="none" stroke-width="1" fill="none" fill-rule="evenodd">
        <g id="直播中备份-3" transform="translate(-15.000000, -606.000000)">
            <g id="编组-9" transform="translate(15.000000, 606.000000)">
                <g id="聊天">
                    <g id="编组-5备份-2" fill="#000000" opacity="0.494266183">
                        <circle id="椭圆形" cx="16" cy="16" r="16"></circle>
                    </g>
                    <g id="编组" transform="translate(6.000000, 8.000000)">
                        <g transform="translate(0.000000, 16.057600)">
                            <mask id="mask-2" fill="white">
                                <use xlink:href="#path-1"></use>
                            </mask>
                            <g id="Clip-2"></g>
                            <path d="" id="Fill-1" fill="#FFFFFF" mask="url(#mask-2)"></path>
                        </g>
                        <g transform="translate(1.000000, 0.057600)">
                            <mask id="mask-4" fill="white">
                                <use xlink:href="#path-3"></use>
                            </mask>
                            <g id="Clip-4"></g>
                            <path d="M2.4492,2.8398 C2.1442,2.8398 1.8972,3.0878 1.8972,3.3928 L1.8972,12.3618 C1.8972,12.6668 2.1442,12.9138 2.4492,12.9138 L5.8842,12.9138 L6.6392,14.7298 L9.6642,12.9138 L15.9082,12.9138 C16.2132,12.9138 16.4602,12.6668 16.4602,12.3618 L16.4602,3.3928 C16.4602,3.0878 16.2132,2.8398 15.9082,2.8398 L2.4492,2.8398 Z M6.2442,16.9998 C6.1292,16.9998 6.0162,16.9828 5.9102,16.9458 C5.6142,16.8508 5.3762,16.6288 5.2552,16.3408 L4.6172,14.8118 L2.4492,14.8118 C1.0982,14.8108 0.0002,13.7118 0.0002,12.3618 L0.0002,3.3928 C0.0002,2.0418 1.0982,0.9428 2.4492,0.9428 L15.9082,0.9428 C17.2592,0.9428 18.3582,2.0418 18.3582,3.3928 L18.3582,12.3618 C18.3582,13.7128 17.2592,14.8118 15.9082,14.8118 L10.1892,14.8118 L6.7942,16.8478 C6.6312,16.9468 6.4402,16.9998 6.2442,16.9998 L6.2442,16.9998 Z" id="Fill-3" fill="#FFFFFF" mask="url(#mask-4)"></path>
                        </g>
                        <g transform="translate(0.000000, 16.057600)">
                            <mask id="mask-6" fill="white">
                                <use xlink:href="#path-5"></use>
                            </mask>
                            <g id="Clip-6"></g>
                            <path d="" id="Fill-5" fill="#FFFFFF" mask="url(#mask-6)"></path>
                        </g>
                    </g>
                </g>
                <circle id="椭圆形" fill="#FFFFFF" cx="12" cy="16" r="1"></circle>
                <circle id="椭圆形备份" fill="#FFFFFF" cx="16" cy="16" r="1"></circle>
                <circle id="椭圆形备份-2" fill="#FFFFFF" cx="20" cy="16" r="1"></circle>
            </g>
        </g>
    </g>
</svg>