<?xml version="1.0" encoding="UTF-8"?>
<svg width="32px" height="32px" viewBox="0 0 32 32" version="1.1" xmlns="http://www.w3.org/2000/svg" xmlns:xlink="http://www.w3.org/1999/xlink">
    <!-- Generator: Sketch 63.1 (92452) - https://sketch.com -->
    <title>编组 8</title>
    <desc>Created with Sketch.</desc>
    <defs>
        <polygon id="path-1" points="0.0003 0.0003 16.319 0.0003 16.319 16.3192 0.0003 16.3192"></polygon>
    </defs>
    <g id="卖播小程序" stroke="none" stroke-width="1" fill="none" fill-rule="evenodd">
        <g id="直播中备份-3" transform="translate(-328.000000, -164.000000)">
            <g id="编组-8" transform="translate(328.000000, 164.000000)">
                <g id="翻转" fill="#000000" opacity="0.496730841">
                    <g id="编组-5备份-3">
                        <circle id="椭圆形" cx="16" cy="16" r="16"></circle>
                    </g>
                </g>
                <g id="编组" transform="translate(8.000000, 8.000000)">
                    <mask id="mask-2" fill="white">
                        <use xlink:href="#path-1"></use>
                    </mask>
                    <g id="Clip-2"></g>
                    <path d="M15.4863,8.9922 C15.0273,8.9922 14.6533,8.6182 14.6533,8.1592 C14.6533,4.5782 11.7403,1.6652 8.1593,1.6652 C6.6113,1.6652 5.1163,2.2152 3.9493,3.2122 L3.7433,3.3882 L4.9123,3.3882 C5.1343,3.3882 5.3443,3.4742 5.5013,3.6322 C5.6563,3.7872 5.7453,4.0012 5.7453,4.2212 C5.7453,4.4402 5.6563,4.6542 5.5013,4.8092 C5.3443,4.9672 5.1343,5.0542 4.9123,5.0542 L1.9813,5.0542 C1.6773,5.0532 1.3983,4.8872 1.2523,4.6212 C1.1063,4.3552 1.1163,4.0302 1.2783,3.7732 C2.7873,1.4102 5.3603,0.0002 8.1593,0.0002 C12.6593,0.0002 16.3193,3.6602 16.3193,8.1592 C16.3183,8.6182 15.9443,8.9922 15.4863,8.9922 M8.1593,16.3192 C3.6603,16.3192 0.0003,12.6592 0.0003,8.1592 C0.0003,7.7012 0.3733,7.3272 0.8323,7.3262 C1.2923,7.3272 1.6653,7.7012 1.6653,8.1592 C1.6653,11.7412 4.5783,14.6542 8.1593,14.6542 C9.7083,14.6542 11.2033,14.1042 12.3703,13.1072 L12.5763,12.9312 L11.4083,12.9312 C11.1853,12.9312 10.9763,12.8452 10.8193,12.6872 C10.6643,12.5332 10.5753,12.3182 10.5753,12.0982 C10.5753,11.8762 10.6613,11.6672 10.8193,11.5092 C10.9743,11.3542 11.1893,11.2652 11.4083,11.2652 L14.3393,11.2652 C14.6433,11.2662 14.9233,11.4322 15.0683,11.6982 C15.2143,11.9642 15.2033,12.2892 15.0403,12.5482 C13.5293,14.9092 10.9573,16.3192 8.1593,16.3192" id="Fill-1" fill="#FFFFFF" mask="url(#mask-2)"></path>
                </g>
            </g>
        </g>
    </g>
</svg>