<?xml version="1.0" encoding="UTF-8"?>
<svg width="32px" height="32px" viewBox="0 0 32 32" version="1.1" xmlns="http://www.w3.org/2000/svg" xmlns:xlink="http://www.w3.org/1999/xlink">
    <!-- Generator: Sketch 63.1 (92452) - https://sketch.com -->
    <title>汉堡icon</title>
    <desc>Created with Sketch.</desc>
    <g id="卖播小程序" stroke="none" stroke-width="1" fill="none" fill-rule="evenodd">
        <g id="直播中备份-3" transform="translate(-67.000000, -606.000000)">
            <g id="汉堡icon" transform="translate(67.000000, 606.000000)">
                <g id="编组-5备份" fill="#000000" opacity="0.499335007">
                    <circle id="椭圆形" cx="16" cy="16" r="16"></circle>
                </g>
                <g id="编组" transform="translate(10.000000, 10.000000)" fill="#FFFFFF">
                    <path d="M12,2 L1,2 C0.45,2 0,1.55 0,1 C0,0.45 0.45,0 1,0 L12,0 C12.55,0 13,0.45 13,1 C13,1.55 12.55,2 12,2" id="Fill-1"></path>
                    <path d="M12,7 L1,7 C0.45,7 0,6.55 0,6 C0,5.45 0.45,5 1,5 L12,5 C12.55,5 13,5.45 13,6 C13,6.55 12.55,7 12,7" id="Fill-3"></path>
                    <path d="M12,12 L1,12 C0.45,12 0,11.55 0,11 C0,10.45 0.45,10 1,10 L12,10 C12.55,10 13,10.45 13,11 C13,11.55 12.55,12 12,12" id="Fill-5"></path>
                </g>
            </g>
        </g>
    </g>
</svg>