<?xml version="1.0" standalone="no"?><!DOCTYPE svg PUBLIC "-//W3C//DTD SVG 1.1//EN" "http://www.w3.org/Graphics/SVG/1.1/DTD/svg11.dtd"><svg t="1588065366785" class="icon" viewBox="0 0 1024 1024" version="1.1" xmlns="http://www.w3.org/2000/svg" p-id="4099" xmlns:xlink="http://www.w3.org/1999/xlink" width="120" height="120"><defs><style type="text/css"></style></defs><path d="M253.996522 430.124522c-13.979826 0-25.644522-6.989913-32.678957-20.969739a272.339478 272.339478 0 0 1-20.925217-104.982261C200.347826 145.497043 340.279652 17.185391 510.575304 17.185391c170.340174 0 310.316522 128.311652 310.316522 286.987131a249.766957 249.766957 0 0 1-16.384 90.957913c-6.989913 18.654609-25.644522 28.004174-44.29913 21.014261-18.69913-6.989913-28.048696-25.689043-21.014261-44.343653 6.989913-21.014261 11.664696-44.343652 11.664695-67.673043 0-118.962087-107.297391-216.954435-240.283826-216.954435-132.941913 0-240.283826 97.992348-240.283826 216.954435 0 28.004174 4.674783 53.648696 16.339479 77.022609 6.989913 18.654609 0 37.309217-18.699131 46.614261-4.630261 0-9.305043 2.359652-13.979826 2.359652" fill="#FFFFFF" p-id="4100"></path><path d="M244.869565 859.581217c0-72.347826 79.337739-130.671304 202.974609-146.96626 18.654609-2.359652-7.212522 11.664696-4.85287 30.274782 2.31513 18.69913 32.812522 37.398261 14.202435 39.713391-91.002435 13.979826-144.695652 51.289043-144.695652 79.293218 0 34.994087 79.337739 83.968 207.693913 83.968 128.26713 0 207.60487-48.973913 207.60487-83.968 0-25.644522-41.984-58.323478-123.63687-74.662957-18.69913-4.630261-30.319304-23.28487-28.004174-41.984 4.630261-18.69913 23.329391-30.319304 41.984-28.004174 109.657043 21.014261 179.645217 77.022609 179.645217 144.695653 2.359652 86.28313-116.646957 151.596522-275.277913 151.596521C363.876174 1013.537391 244.869565 948.224 244.869565 859.581217z" fill="#FFFFFF" p-id="4101"></path><path d="M510.664348 868.708174c-25.689043 0-51.378087-11.664696-65.357913-30.274783l-2.359652-4.719304L223.677217 411.469913c-9.349565-16.339478-2.359652-37.309217 13.979826-46.658783 16.339478-9.349565 37.353739-2.31513 46.658783 13.979827l219.314087 417.613913h16.339478l221.629218-431.59374c9.349565-16.339478 30.274783-23.329391 46.658782-13.979826 16.294957 9.349565 23.329391 30.274783 13.979826 46.658783l-228.61913 438.53913c-11.664696 21.014261-34.994087 32.678957-62.998261 32.678957" fill="#FFFFFF" p-id="4102"></path><path d="M512.979478 262.144c-32.678957 0-60.68313 28.004174-60.68313 60.68313 0 32.634435 28.004174 60.638609 60.68313 60.638609 32.634435 0 60.638609-28.004174 60.638609-60.638609 0-32.678957-25.644522-60.68313-60.638609-60.68313m0 188.994783a130.448696 130.448696 0 0 1-130.671304-130.671305 130.448696 130.448696 0 0 1 130.671304-130.626782 130.448696 130.448696 0 0 1 130.626783 130.626782 130.448696 130.448696 0 0 1-130.626783 130.671305" fill="#FFFFFF" p-id="4103"></path></svg>