<?xml version="1.0" encoding="UTF-8"?>
<svg width="32px" height="32px" viewBox="0 0 32 32" version="1.1" xmlns="http://www.w3.org/2000/svg" xmlns:xlink="http://www.w3.org/1999/xlink">
    <!-- Generator: Sketch 63.1 (92452) - https://sketch.com -->
    <title>分享</title>
    <desc>Created with Sketch.</desc>
    <defs>
        <polygon id="path-1" points="0 0.0002 14.8067 0.0002 14.8067 16.4609 0 16.4609"></polygon>
    </defs>
    <g id="卖播小程序" stroke="none" stroke-width="1" fill="none" fill-rule="evenodd">
        <g id="直播中备份-3" transform="translate(-328.000000, -226.000000)">
            <g id="分享" transform="translate(328.000000, 226.000000)">
                <g id="编组-5备份-4" fill="#000000" opacity="0.499311756">
                    <circle id="椭圆形" cx="16" cy="16" r="16"></circle>
                </g>
                <g id="编组" transform="translate(9.000000, 8.000000)">
                    <mask id="mask-2" fill="white">
                        <use xlink:href="#path-1"></use>
                    </mask>
                    <g id="Clip-2"></g>
                    <path d="M9.0967,4.2402 C9.0967,4.6772 8.7717,5.0252 8.3387,5.0512 C4.6727,5.2772 1.7797,8.2562 1.6287,11.8942 C1.9637,11.1822 2.3897,10.5242 2.8997,9.9302 C4.2417,8.3592 6.1067,7.3122 8.1527,6.9822 C8.1997,6.9692 8.2467,6.9692 8.2857,6.9692 C8.4757,6.9692 8.6617,7.0362 8.8107,7.1582 C8.9967,7.3292 9.0967,7.5492 9.0967,7.7802 L9.0967,9.9772 L12.8317,6.4292 L9.0967,2.7402 L9.0967,4.2402 Z M1.6007,16.4612 C1.3087,16.4612 1.0237,16.2892 0.8737,16.0222 C0.2927,14.8062 -0.0003,13.5202 -0.0003,12.1932 C-0.0003,7.8672 3.2067,4.1522 7.4757,3.5152 L7.4757,0.8042 C7.4757,0.4812 7.6767,0.1812 7.9757,0.0582 C8.0727,0.0192 8.1747,0.0002 8.2817,0.0002 C8.4967,0.0002 8.7057,0.0862 8.8557,0.2362 L14.5647,5.8712 C14.7177,6.0112 14.8067,6.2242 14.8067,6.4522 C14.7907,6.6942 14.7007,6.9002 14.5487,7.0382 L8.8417,12.4652 C8.6977,12.6092 8.4977,12.6892 8.2837,12.6892 C8.1747,12.6892 8.0677,12.6692 7.9657,12.6282 C7.6677,12.5062 7.4757,12.2142 7.4757,11.8822 L7.4757,8.8082 C4.4877,9.7062 2.4107,12.5002 2.4107,15.6502 C2.4107,16.0172 2.1387,16.3552 1.7757,16.4362 C1.7417,16.4612 1.6597,16.4612 1.6007,16.4612 L1.6007,16.4612 Z" id="Fill-1" fill="#FFFFFF" mask="url(#mask-2)"></path>
                </g>
            </g>
        </g>
    </g>
</svg>